<svg width="1200" height="400" viewBox="0 0 1200 400" xmlns="http://www.w3.org/2000/svg" role="img" aria-label="3D Interactive Gaming Scene">
  <defs>
    <linearGradient id="bgGrad" x1="0%" y1="0%" x2="100%" y2="100%">
      <stop offset="0%" stop-color="#0B1221" />
      <stop offset="50%" stop-color="#1a1f35" />
      <stop offset="100%" stop-color="#0B1221" />
    </linearGradient>
    <linearGradient id="neonGrad" x1="0%" y1="0%" x2="100%" y2="0%">
      <stop offset="0%" stop-color="#7C3AED" />
      <stop offset="25%" stop-color="#06B6D4" />
      <stop offset="50%" stop-color="#22C55E" />
      <stop offset="75%" stop-color="#F59E0B" />
      <stop offset="100%" stop-color="#EF4444" />
    </linearGradient>
    <filter id="glow">
      <feGaussianBlur stdDeviation="4" result="coloredBlur" />
      <feMerge>
        <feMergeNode in="coloredBlur" />
        <feMergeNode in="SourceGraphic" />
      </feMerge>
    </filter>
    <filter id="shadow3d" x="-50%" y="-50%" width="200%" height="200%">
      <feDropShadow dx="0" dy="8" stdDeviation="8" flood-color="#00000088" />
    </filter>
  </defs>

  <rect x="0" y="0" width="1200" height="400" fill="url(#bgGrad)" />

  <g opacity="0.15">
    <line x1="0" y1="100" x2="1200" y2="100" stroke="#06B6D4" stroke-width="1" />
    <line x1="0" y1="200" x2="1200" y2="200" stroke="#06B6D4" stroke-width="1" />
    <line x1="0" y1="300" x2="1200" y2="300" stroke="#06B6D4" stroke-width="1" />
    <line x1="200" y1="0" x2="200" y2="400" stroke="#06B6D4" stroke-width="1" />
    <line x1="400" y1="0" x2="400" y2="400" stroke="#06B6D4" stroke-width="1" />
    <line x1="600" y1="0" x2="600" y2="400" stroke="#06B6D4" stroke-width="1" />
    <line x1="800" y1="0" x2="800" y2="400" stroke="#06B6D4" stroke-width="1" />
    <line x1="1000" y1="0" x2="1000" y2="400" stroke="#06B6D4" stroke-width="1" />
  </g>

  <text x="50%" y="45" text-anchor="middle" fill="url(#neonGrad)" font-size="36" font-weight="900" font-family="'Arial Black', sans-serif" filter="url(#glow)">
    ⚡ FULL-STACK ARCHITECT ⚡
  </text>
  <text x="50%" y="75" text-anchor="middle" fill="#94A3B8" font-size="16" font-weight="600" font-family="'Segoe UI', Arial">
    Building the Future • One Pixel at a Time
  </text>

  <g transform="translate(600, 280)" filter="url(#shadow3d)">
    <polygon points="0,-80 200,-40 200,0 0,40 -200,0 -200,-40" fill="#1F2937" stroke="#374151" stroke-width="2" opacity="0.9" />
    <polygon points="0,-80 200,-40 0,0 -200,-40" fill="#374151" opacity="0.7" />
  </g>

  <g transform="translate(350, 220)" filter="url(#shadow3d)">
    <g>
      <polygon points="0,-50 45,-25 45,25 0,50 -45,25 -45,-25" fill="#111827" stroke="#6B7280" stroke-width="2" />
      <polygon points="0,-50 45,-25 0,0 -45,-25" fill="#0EA5E9" opacity="0.95" />
      <polygon points="-45,-25 0,0 0,50 -45,25" fill="#0284C7" opacity="0.95" />
      <polygon points="45,-25 0,0 0,50 45,25" fill="#0369A1" opacity="0.95" />
      <text x="0" y="10" text-anchor="middle" fill="white" font-size="24" font-weight="bold">JS</text>
      <animateTransform attributeName="transform" type="translate" values="0,0; 0,-15; 0,0" dur="2s" repeatCount="indefinite" />
    </g>
  </g>

  <g transform="translate(600, 180)" filter="url(#shadow3d)">
    <g>
      <polygon points="0,-55 50,-27.5 50,27.5 0,55 -50,27.5 -50,-27.5" fill="#0F172A" stroke="#475569" stroke-width="2" />
      <polygon points="0,-55 50,-27.5 0,0 -50,-27.5" fill="#7C3AED" opacity="0.95" />
      <polygon points="-50,-27.5 0,0 0,55 -50,27.5" fill="#6D28D9" opacity="0.95" />
      <polygon points="50,-27.5 0,0 0,55 50,27.5" fill="#5B21B6" opacity="0.95" />
      <text x="0" y="10" text-anchor="middle" fill="white" font-size="28" font-weight="bold">⚛️</text>
      <animateTransform attributeName="transform" type="translate" values="0,0; 0,-20; 0,0" dur="2.5s" repeatCount="indefinite" />
    </g>
  </g>

  <g transform="translate(850, 220)" filter="url(#shadow3d)">
    <g>
      <polygon points="0,-50 45,-25 45,25 0,50 -45,25 -45,-25" fill="#111827" stroke="#6B7280" stroke-width="2" />
      <polygon points="0,-50 45,-25 0,0 -45,-25" fill="#22C55E" opacity="0.95" />
      <polygon points="-45,-25 0,0 0,50 -45,25" fill="#16A34A" opacity="0.95" />
      <polygon points="45,-25 0,0 0,50 45,25" fill="#15803D" opacity="0.95" />
      <text x="0" y="12" text-anchor="middle" fill="white" font-size="26" font-weight="bold">TS</text>
      <animateTransform attributeName="transform" type="translate" values="0,0; 0,-15; 0,0" dur="2.2s" repeatCount="indefinite" />
    </g>
  </g>

  <g transform="translate(600, 200)">
    <circle cx="0" cy="0" r="8" fill="#0EA5E9" filter="url(#glow)">
      <animateTransform attributeName="transform" type="rotate" from="0 0 0" to="360 0 0" dur="8s" repeatCount="indefinite" />
      <animate attributeName="r" values="8;12;8" dur="2s" repeatCount="indefinite" />
    </circle>
    <circle cx="150" cy="0" r="8" fill="#22C55E" filter="url(#glow)">
      <animateTransform attributeName="transform" type="rotate" from="0 0 0" to="360 0 0" dur="6s" repeatCount="indefinite" />
      <animate attributeName="r" values="8;12;8" dur="2.5s" repeatCount="indefinite" />
    </circle>
    <circle cx="-150" cy="0" r="8" fill="#7C3AED" filter="url(#glow)">
      <animateTransform attributeName="transform" type="rotate" from="0 0 0" to="360 0 0" dur="10s" repeatCount="indefinite" />
      <animate attributeName="r" values="8;12;8" dur="3s" repeatCount="indefinite" />
    </circle>
  </g>

  <circle cx="200" cy="150" r="3" fill="#06B6D4" opacity="0.8">
    <animate attributeName="cy" values="150;350;150" dur="4s" repeatCount="indefinite" />
    <animate attributeName="opacity" values="0.8;0;0.8" dur="4s" repeatCount="indefinite" />
  </circle>
  <circle cx="1000" cy="100" r="3" fill="#F59E0B" opacity="0.8">
    <animate attributeName="cy" values="100;300;100" dur="5s" repeatCount="indefinite" />
    <animate attributeName="opacity" values="0.8;0;0.8" dur="5s" repeatCount="indefinite" />
  </circle>
  <circle cx="400" cy="120" r="2" fill="#EF4444" opacity="0.7">
    <animate attributeName="cy" values="120;330;120" dur="6s" repeatCount="indefinite" />
    <animate attributeName="opacity" values="0.7;0;0.7" dur="6s" repeatCount="indefinite" />
  </circle>

  <rect x="0" y="360" width="1200" height="40" fill="#0B1221" opacity="0.9" />
  <text x="50%" y="385" text-anchor="middle" fill="#CBD5E1" font-size="14" font-weight="600" font-family="'Segoe UI', Arial">
    🎮 LEVEL 99 • 💎 10K+ LINES • ⚡ REAL-TIME MASTER • 🚀 ALWAYS SHIPPING
  </text>
</svg>
